# xmcd CD database file
#
# Track frame offsets:
#	150
#	14418
#	28878
#	45565
#	60714
#	82328
#	100539
#	116504
#	132681
#	146068
#	162669
#	177864
#	195013
#	211115
#	232389
#	248592
#	264807
#	279402
#	296103
#	310583
#
# Disc length: 4401 seconds
#
# Revision: 0
# Processed by: cddbd v1.5.2PL0 Copyright (c) Steve Scherf et al.
# Submitted via: CDex 1.51
#
DISCID=22112f14
DTITLE=Bellamy Brothers - The Anthology Volume 1
DYEAR=2009
DGENRE=Country
TTITLE0=Let your Love flow
TTITLE1=If I said you have a beautiful Body (Would you hold it against me)
TTITLE2=Guilty of the Crime
TTITLE3=Redneck Girl
TTITLE4=The Fires of Time
TTITLE5=Old Hippie
TTITLE6=I could be persuaded
TTITLE7=I need more of you
TTITLE8=Do you love as good as you look
TTITLE9=Trust me
TTITLE10=Dancin Cowboys
TTITLE11=When i'm away from you
TTITLE12=Crazy from the heart
TTITLE13=Heart of my Heart
TTITLE14=Feelin the Feelin
TTITLE15=Sugar Daddy
TTITLE16=Where did the common Sense go
TTITLE17=For all the wrong Reasons
TTITLE18=Kids of the Baby Boom
TTITLE19=The old Bulls
EXTD=YEAR: 2009
EXTT0=
EXTT1=
EXTT2=
EXTT3=
EXTT4=
EXTT5=
EXTT6=
EXTT7=
EXTT8=
EXTT9=
EXTT10=
EXTT11=
EXTT12=
EXTT13=
EXTT14=
EXTT15=
EXTT16=
EXTT17=
EXTT18=
EXTT19=
PLAYORDER=
